<svg xmlns="http://www.w3.org/2000/svg" width="16in" height="9in" viewBox="0 0 1152 648"><path fill="#221f20" d="M507.2 176.1h-17.7V172l16.4-26.8h4.8V173h6.2v3.1h-6.2v10.1h-3.5zm0-27.1h-.1l-14.5 24h14.6zm12.6 16.7c0-1.5.1-3 .2-4.7a39.7 39.7 0 0 1 .7-4.8 24.1 24.1 0 0 1 1.6-4.5 13.1 13.1 0 0 1 2.4-3.7 11.9 11.9 0 0 1 3.6-2.6 13.3 13.3 0 0 1 5.1-.9 12.8 12.8 0 0 1 5 .9 11.9 11.9 0 0 1 3.6 2.6 16 16 0 0 1 2.5 3.7 33.9 33.9 0 0 1 1.5 4.5 39.7 39.7 0 0 1 .7 4.8 38.6 38.6 0 0 1 .2 4.7 37.7 37.7 0 0 1-.2 4.7 39.7 39.7 0 0 1-.7 4.8 32.6 32.6 0 0 1-1.5 4.4 14.7 14.7 0 0 1-2.5 3.8 11.9 11.9 0 0 1-3.6 2.6 12.8 12.8 0 0 1-5 .9 13.3 13.3 0 0 1-5.1-.9 11.9 11.9 0 0 1-3.6-2.6 12.3 12.3 0 0 1-2.4-3.8 23.2 23.2 0 0 1-1.6-4.4 39.7 39.7 0 0 1-.7-4.8c-.1-1.6-.2-3.2-.2-4.7zm3.8 0c0 1.1.1 2.3.1 3.6s.3 2.6.5 3.9a27.9 27.9 0 0 0 1 3.9 12.2 12.2 0 0 0 1.8 3.4 7.5 7.5 0 0 0 2.6 2.4 7.4 7.4 0 0 0 3.8.9 7.5 7.5 0 0 0 3.7-.9 7.8 7.8 0 0 0 2.7-2.4 12 12 0 0 0 1.7-3.4 18.6 18.6 0 0 0 1-3.9 26 26 0 0 0 .5-3.9c.1-1.3.1-2.5.1-3.6s0-2.2-.1-3.5a25.7 25.7 0 0 0-.5-4 17.2 17.2 0 0 0-1-3.9 12 12 0 0 0-1.7-3.4 7.8 7.8 0 0 0-2.7-2.4 7.5 7.5 0 0 0-3.7-.9 7.6 7.6 0 0 0-3.8.9 8.5 8.5 0 0 0-2.6 2.4 12.2 12.2 0 0 0-1.8 3.4 24.8 24.8 0 0 0-1 3.9c-.2 1.3-.4 2.6-.5 4s-.1 2.5-.1 3.5zm43.9 10.4h-17.7V172l16.4-26.8h4.8V173h6.3v3.1H571v10.1h-3.5zm0-27.1h-.1l-14.5 24h14.6zm15.9 12.9a2.4 2.4 0 0 1 .8-2 2.7 2.7 0 0 1 1.9-.8 2.8 2.8 0 0 1 2 .8 2.4 2.4 0 0 1 .8 2 2.4 2.4 0 0 1-.8 1.9 2.5 2.5 0 0 1-2 .9 2.5 2.5 0 0 1-1.9-.9 2.4 2.4 0 0 1-.8-1.9zm0 21.9a2.6 2.6 0 0 1 .8-2 2.7 2.7 0 0 1 1.9-.8 2.8 2.8 0 0 1 2 .8 2.9 2.9 0 0 1 0 4 2.8 2.8 0 0 1-2 .8 2.7 2.7 0 0 1-1.9-.8 2.6 2.6 0 0 1-.8-2zm40.1-35.2h-14v-3.4h31.9v3.4h-14.1v37.6h-3.8zm23.2-6.2h3.5v21.7h.1a9.6 9.6 0 0 1 3.5-3.8 10.5 10.5 0 0 1 5.6-1.6 13 13 0 0 1 5.2 1 8.8 8.8 0 0 1 3.1 2.6 11.1 11.1 0 0 1 1.5 3.7 20.2 20.2 0 0 1 .5 4.3v15.9h-3.5v-15.7a16.6 16.6 0 0 0-.3-3.2 8.5 8.5 0 0 0-1-2.8 5.5 5.5 0 0 0-2.1-1.9 6.6 6.6 0 0 0-3.4-.7 11.3 11.3 0 0 0-3.6.6 8.6 8.6 0 0 0-2.9 2.1 8.8 8.8 0 0 0-2 3.4 14.3 14.3 0 0 0-.7 4.8v13.4h-3.5zm31.9 6.4a2.5 2.5 0 0 1 .8-1.8 2.6 2.6 0 0 1 1.9-.8 2.7 2.7 0 0 1 2.6 2.6 2.6 2.6 0 0 1-.8 1.9 2.4 2.4 0 0 1-1.8.7 2.5 2.5 0 0 1-1.9-.7 2.6 2.6 0 0 1-.8-1.9zm.9 10.6h3.5v26.8h-3.5zm13.4 20a7.5 7.5 0 0 0 3.3 3.3 10 10 0 0 0 4.5 1.1 5.7 5.7 0 0 0 2.2-.4 7.2 7.2 0 0 0 2-.9 10.7 10.7 0 0 0 1.4-1.6 4.6 4.6 0 0 0 .5-2 3.2 3.2 0 0 0-1.2-2.8 8.7 8.7 0 0 0-2.9-1.5l-3.8-.9a14.1 14.1 0 0 1-3.8-1.1 9.7 9.7 0 0 1-3-2.2 5.7 5.7 0 0 1-1.2-3.9 6.5 6.5 0 0 1 .9-3.5 7.9 7.9 0 0 1 2.1-2.4 8.7 8.7 0 0 1 2.9-1.4 12.6 12.6 0 0 1 3.3-.5 11.4 11.4 0 0 1 5.7 1.3 8.2 8.2 0 0 1 3.8 3.8l-3.2 1.8a8.3 8.3 0 0 0-2.4-2.8 7.5 7.5 0 0 0-3.9-.9 6.3 6.3 0 0 0-1.9.3 6.4 6.4 0 0 0-1.9.8 4 4 0 0 0-1.3 1.3 3.1 3.1 0 0 0-.6 1.9 3 3 0 0 0 1.2 2.6 8.7 8.7 0 0 0 2.9 1.4l3.9.8a15.3 15.3 0 0 1 3.8 1.2 7 7 0 0 1 2.9 2.2 6.6 6.6 0 0 1 1.2 4.2 7.5 7.5 0 0 1-.8 3.7 7.2 7.2 0 0 1-2.1 2.5 9.2 9.2 0 0 1-3.1 1.6 11.4 11.4 0 0 1-3.7.5 14.5 14.5 0 0 1-6.3-1.3 10.5 10.5 0 0 1-4.5-4.1zm39-20h3.5v4.7h.1a9.1 9.1 0 0 1 2-2.4 12.4 12.4 0 0 1 2.7-1.7 14 14 0 0 1 2.9-.9 11.5 11.5 0 0 1 3.1-.4 14.8 14.8 0 0 1 5.7 1.1 13.5 13.5 0 0 1 4.4 2.9 13.7 13.7 0 0 1 3 4.5 14.7 14.7 0 0 1 1 5.6 14.8 14.8 0 0 1-1 5.7 13.7 13.7 0 0 1-3 4.5 13.5 13.5 0 0 1-4.4 2.9 14.8 14.8 0 0 1-5.7 1l-3.1-.3a10 10 0 0 1-2.9-1 9.5 9.5 0 0 1-2.7-1.7 6.8 6.8 0 0 1-2-2.4h-.1v18h-3.5zm3.1 13.4a10.4 10.4 0 0 0 .9 4.3 12.1 12.1 0 0 0 2.4 3.5 11.8 11.8 0 0 0 3.5 2.3 10.8 10.8 0 0 0 4.4.9 10.5 10.5 0 0 0 4.4-.9 10.2 10.2 0 0 0 3.4-2.3 11.3 11.3 0 0 0 2.1-3.5 12.1 12.1 0 0 0 .7-4.3 11.6 11.6 0 0 0-.7-4.2 10.2 10.2 0 0 0-2.1-3.5 10.5 10.5 0 0 0-3.4-2.4 12.3 12.3 0 0 0-4.4-.8 12.7 12.7 0 0 0-4.4.8 12.1 12.1 0 0 0-3.5 2.4 10.9 10.9 0 0 0-2.4 3.5 9.9 9.9 0 0 0-.9 4.2zm53.9 2.2v3.5c.1 1.1.1 2 .1 2.9s.1 1.7.2 2.5a16.4 16.4 0 0 0 .2 2.3h-3.2a19.1 19.1 0 0 1-.4-4.3h-.1a9.7 9.7 0 0 1-3.7 3.8 12 12 0 0 1-5.7 1.2 13.2 13.2 0 0 1-3.4-.4 10.3 10.3 0 0 1-3-1.4 7.6 7.6 0 0 1-2.2-2.5 6.8 6.8 0 0 1-.8-3.6 7.4 7.4 0 0 1 1.5-4.9 10.5 10.5 0 0 1 3.9-2.7 15.3 15.3 0 0 1 4.9-1.1l4.5-.3h4.1v-1.6c0-2.4-.7-4-2.2-5a9.1 9.1 0 0 0-5.4-1.5 12 12 0 0 0-8.1 3l-2.1-2.4a12.7 12.7 0 0 1 4.8-2.8 18.2 18.2 0 0 1 5.4-1 12.3 12.3 0 0 1 7.8 2.3c1.9 1.6 2.9 4 2.9 7.4zm-7-2.2l-4.2.3a18.2 18.2 0 0 0-3.7.9 7.7 7.7 0 0 0-2.7 1.9 4.6 4.6 0 0 0-1 2.9 4.3 4.3 0 0 0 .6 2.2 5 5 0 0 0 1.4 1.5 4.7 4.7 0 0 0 2 1l2.1.3a11.9 11.9 0 0 0 4.6-.8 9.4 9.4 0 0 0 2.9-2.1 8.5 8.5 0 0 0 1.5-3 18.6 18.6 0 0 0 .4-3.3v-1.8zm43.2 11.7a18.9 18.9 0 0 1-1.5 8.1 11.6 11.6 0 0 1-3.6 4.7 12.5 12.5 0 0 1-4.6 2.3 19.5 19.5 0 0 1-4.6.5 24.7 24.7 0 0 1-3.9-.3 20 20 0 0 1-3.7-1.1 16.5 16.5 0 0 1-3.2-1.8 14.2 14.2 0 0 1-2.5-2.4l2.8-2.5a11.2 11.2 0 0 0 4.6 3.8 14.8 14.8 0 0 0 5.9 1.2 11.8 11.8 0 0 0 4.5-.7 8.9 8.9 0 0 0 3-1.8 11 11 0 0 0 1.9-2.5 14.8 14.8 0 0 0 1-2.7c.2-.9.3-1.8.4-2.6V181h-.1a10.7 10.7 0 0 1-4.1 3.8 11.7 11.7 0 0 1-6.1 1.4 14 14 0 0 1-10.1-4 13.2 13.2 0 0 1-3-4.4 11.8 11.8 0 0 1-1.2-5.3 12.5 12.5 0 0 1 1.2-5.4 12.8 12.8 0 0 1 3-4.3 16.6 16.6 0 0 1 4.6-3 14.6 14.6 0 0 1 5.5-1.1 12.8 12.8 0 0 1 6.1 1.4 11 11 0 0 1 4.1 3.9h.1v-4.6h3.5zm-3.4-12a10.8 10.8 0 0 0-6.4-9.8 11.6 11.6 0 0 0-4.2-.8 11.1 11.1 0 0 0-4.1.8 11.1 11.1 0 0 0-5.7 5.6 11.6 11.6 0 0 0-.8 4.2 11.1 11.1 0 0 0 .8 4.1 10.8 10.8 0 0 0 5.7 5.7 11.1 11.1 0 0 0 4.1.8 11.6 11.6 0 0 0 4.2-.8 11.1 11.1 0 0 0 5.6-5.7 9.4 9.4 0 0 0 .8-4.1zm35.6 8.7a12.3 12.3 0 0 1-5 4.4 15.9 15.9 0 0 1-6.6 1.3 14.3 14.3 0 0 1-5.6-1 14.2 14.2 0 0 1-4.3-2.9 12.9 12.9 0 0 1-2.7-4.5 14.8 14.8 0 0 1-1-5.7 14.7 14.7 0 0 1 1-5.6 13.3 13.3 0 0 1 2.8-4.4 12.5 12.5 0 0 1 4.2-3 13.3 13.3 0 0 1 5.4-1.1 12.7 12.7 0 0 1 5.4 1.1 11.8 11.8 0 0 1 4 2.9 13.3 13.3 0 0 1 2.4 4 14.4 14.4 0 0 1 .8 4.6v2.4h-22.5a11 11 0 0 0 .4 2.8 8.4 8.4 0 0 0 1.6 3.3 9.3 9.3 0 0 0 3.1 2.8 9.5 9.5 0 0 0 5 1.2 10.8 10.8 0 0 0 5.2-1.3 8.6 8.6 0 0 0 3.8-3.5zm-2.7-10.6a7.9 7.9 0 0 0-2.7-6.1 8.1 8.1 0 0 0-2.9-1.9 9.4 9.4 0 0 0-3.7-.7 9.6 9.6 0 0 0-4.7 1.1 13.1 13.1 0 0 0-3 2.7 11.5 11.5 0 0 0-1.5 2.9 5.5 5.5 0 0 0-.5 2zm26.3-28.2h3.5v21.7h.1a10.4 10.4 0 0 1 3.5-3.8 10.6 10.6 0 0 1 5.7-1.6 12.2 12.2 0 0 1 5.1 1 8 8 0 0 1 3.1 2.6 9.5 9.5 0 0 1 1.6 3.7 20.2 20.2 0 0 1 .4 4.3v15.9h-3.5v-15.7a16.6 16.6 0 0 0-.3-3.2 6.7 6.7 0 0 0-1-2.8 5.2 5.2 0 0 0-2-1.9 6.9 6.9 0 0 0-3.4-.7 10.5 10.5 0 0 0-3.6.6 9 9 0 0 0-3 2.1 8.6 8.6 0 0 0-1.9 3.4 14.2 14.2 0 0 0-.8 4.8v13.4h-3.5zM934 175v3.5c.1 1.1.1 2 .1 2.9s.1 1.7.2 2.5a16.4 16.4 0 0 0 .2 2.3h-3.2a27.4 27.4 0 0 1-.4-4.3h-.1a9.7 9.7 0 0 1-3.7 3.8 12 12 0 0 1-5.7 1.2 13.2 13.2 0 0 1-3.4-.4 10.3 10.3 0 0 1-3-1.4 7.6 7.6 0 0 1-2.2-2.5 8 8 0 0 1-.8-3.6 7.4 7.4 0 0 1 1.5-4.9 10.5 10.5 0 0 1 3.9-2.7 15.9 15.9 0 0 1 4.9-1.1l4.5-.3h4.1v-1.6c0-2.4-.7-4-2.2-5a9.1 9.1 0 0 0-5.4-1.5 12.1 12.1 0 0 0-8.1 3l-2.1-2.4a12.7 12.7 0 0 1 4.8-2.8 18.2 18.2 0 0 1 5.4-1 12.3 12.3 0 0 1 7.8 2.3c2 1.6 2.9 4 2.9 7.4zm-6.9-2.2a30 30 0 0 0-4.3.3 18.2 18.2 0 0 0-3.7.9 7.7 7.7 0 0 0-2.7 1.9 4.6 4.6 0 0 0-.9 2.9 4.2 4.2 0 0 0 .5 2.2 6.7 6.7 0 0 0 1.4 1.5 5.4 5.4 0 0 0 2 1 7.6 7.6 0 0 0 2.1.3 11.9 11.9 0 0 0 4.6-.8 9.4 9.4 0 0 0 2.9-2.1 8.5 8.5 0 0 0 1.5-3 12.4 12.4 0 0 0 .4-3.3v-1.8zm16.3 6.6a7.8 7.8 0 0 0 3.2 3.3 10 10 0 0 0 4.5 1.1 5.4 5.4 0 0 0 2.2-.4 6.1 6.1 0 0 0 2-.9 5.2 5.2 0 0 0 1.4-1.6 3.6 3.6 0 0 0 .6-2 3.2 3.2 0 0 0-1.2-2.8 11.3 11.3 0 0 0-2.9-1.5l-3.9-.9a15.2 15.2 0 0 1-3.8-1.1 9.3 9.3 0 0 1-2.9-2.2 5.7 5.7 0 0 1-1.2-3.9 7.5 7.5 0 0 1 .8-3.5 7.9 7.9 0 0 1 2.1-2.4 11.1 11.1 0 0 1 2.9-1.4 12.6 12.6 0 0 1 3.3-.5 11.6 11.6 0 0 1 5.8 1.3 8 8 0 0 1 3.7 3.8l-3.1 1.8a8.5 8.5 0 0 0-2.5-2.8 7.5 7.5 0 0 0-3.9-.9l-1.9.3a4.9 4.9 0 0 0-1.8.8 4.4 4.4 0 0 0-1.4 1.3 3 3 0 0 0-.5 1.9 3 3 0 0 0 1.2 2.6 7.1 7.1 0 0 0 2.9 1.4l3.8.8a14.1 14.1 0 0 1 3.8 1.2 7.3 7.3 0 0 1 3 2.2 6.6 6.6 0 0 1 1.2 4.2 8.7 8.7 0 0 1-.8 3.7 7.5 7.5 0 0 1-2.2 2.5 8.3 8.3 0 0 1-3.1 1.6 10.8 10.8 0 0 1-3.6.5 15 15 0 0 1-6.4-1.3 9.7 9.7 0 0 1-4.4-4.1zm-448.7 52.8h-5.5V229h5.5v-8.7a10.3 10.3 0 0 1 .8-4.3 7.5 7.5 0 0 1 2-2.8 6.4 6.4 0 0 1 2.5-1.5 9.3 9.3 0 0 1 2.7-.4 9 9 0 0 1 4 .7l-.7 3a6.6 6.6 0 0 0-3.1-.6c-3.1 0-4.7 2.4-4.7 7.2v7.4h6.3v3.2h-6.3v23.6h-3.5zm15.8-20.2h3.5v43.8h-3.5zm11.8 30.4a14.7 14.7 0 0 1 1.1-5.6 12.9 12.9 0 0 1 7.3-7.4 15.6 15.6 0 0 1 5.7-1.1 14.8 14.8 0 0 1 5.7 1.1 12.7 12.7 0 0 1 7.4 7.4 14.7 14.7 0 0 1 1 5.6 14.8 14.8 0 0 1-1 5.7 12.7 12.7 0 0 1-7.4 7.4 14.8 14.8 0 0 1-5.7 1 15.6 15.6 0 0 1-5.7-1 12.9 12.9 0 0 1-7.3-7.4 14.8 14.8 0 0 1-1.1-5.7zm3.5 0a14.9 14.9 0 0 0 .7 4.3 10.2 10.2 0 0 0 5.5 5.8 10.5 10.5 0 0 0 4.4.9 10.2 10.2 0 0 0 4.4-.9 9.3 9.3 0 0 0 3.4-2.3 11.3 11.3 0 0 0 2.1-3.5 12.1 12.1 0 0 0 .7-4.3 11.6 11.6 0 0 0-.7-4.2 10.2 10.2 0 0 0-2.1-3.5 9.5 9.5 0 0 0-3.4-2.4 11.9 11.9 0 0 0-4.4-.8 12.3 12.3 0 0 0-4.4.8 10 10 0 0 0-3.3 2.4 9.1 9.1 0 0 0-2.2 3.5 14.2 14.2 0 0 0-.7 4.2zm28.7-13.4h3.9l6.5 22.5h.1l7.5-22.5h3.3l7.9 22.5h.1l6.3-22.5h3.5l-7.9 26.8h-3.6l-8-21.9h-.1l-7.5 21.9h-3.6zm44.6 7.6v-1.9a14.8 14.8 0 0 1-.1-2.1c0-.8-.1-1.4-.1-2.1s-.1-1.1-.1-1.5h3.5c.1 1 .1 2 .1 2.9a5.3 5.3 0 0 0 .2 1.8h.1a10.4 10.4 0 0 1 3.5-3.8 10.6 10.6 0 0 1 5.7-1.6 12.2 12.2 0 0 1 5.1 1 8.8 8.8 0 0 1 3.1 2.6 9.5 9.5 0 0 1 1.6 3.7 20.2 20.2 0 0 1 .4 4.3v15.9h-3.5v-15.7a16.6 16.6 0 0 0-.3-3.2 8.5 8.5 0 0 0-1-2.8 5.2 5.2 0 0 0-2-1.9 6.9 6.9 0 0 0-3.4-.7 10.5 10.5 0 0 0-3.6.6 8.1 8.1 0 0 0-3 2.1 10.2 10.2 0 0 0-2 3.4 17.3 17.3 0 0 0-.7 4.8v13.4h-3.5zm68.2 8v3.5c0 1.1.1 2 .1 2.9s.1 1.7.1 2.5l.3 2.3h-3.2a19.1 19.1 0 0 1-.4-4.3h-.1a9.9 9.9 0 0 1-3.8 3.8 11.3 11.3 0 0 1-5.6 1.2 12.7 12.7 0 0 1-3.4-.4 9.2 9.2 0 0 1-3-1.4 6.7 6.7 0 0 1-2.2-2.5 6.9 6.9 0 0 1-.9-3.6 7.4 7.4 0 0 1 1.6-4.9 9.8 9.8 0 0 1 3.9-2.7 15.3 15.3 0 0 1 4.8-1.1l4.6-.3h4V238c0-2.4-.7-4-2.1-5a9.1 9.1 0 0 0-5.4-1.5 12.4 12.4 0 0 0-8.2 3l-2-2.4a12.7 12.7 0 0 1 4.8-2.8 18.2 18.2 0 0 1 5.4-1 12.5 12.5 0 0 1 7.8 2.3c1.9 1.6 2.9 4 2.9 7.4zm-7-2.2a28.6 28.6 0 0 0-4.2.3 19.3 19.3 0 0 0-3.8.9 7.3 7.3 0 0 0-2.6 1.9 4.1 4.1 0 0 0-1 2.9 4.3 4.3 0 0 0 .6 2.2 4 4 0 0 0 1.4 1.5 5 5 0 0 0 1.9 1l2.2.3a11.9 11.9 0 0 0 4.6-.8 10.8 10.8 0 0 0 2.9-2.1 6.9 6.9 0 0 0 1.4-3 12.4 12.4 0 0 0 .4-3.3v-1.8zm12.5-13.4h3.8l6.5 22.5h.1l7.5-22.5h3.3l8 22.5h.1l6.3-22.5h3.5l-7.9 26.8h-3.6l-8-21.9h-.1l-7.5 21.9h-3.6zm65.4 15.6v3.5c.1 1.1.1 2 .1 2.9s.1 1.7.2 2.5a16.4 16.4 0 0 0 .2 2.3h-3.2a27.4 27.4 0 0 1-.4-4.3h-.1a9.7 9.7 0 0 1-3.7 3.8 12 12 0 0 1-5.7 1.2 13.2 13.2 0 0 1-3.4-.4 10.3 10.3 0 0 1-3-1.4 7.6 7.6 0 0 1-2.2-2.5 8 8 0 0 1-.8-3.6 7.4 7.4 0 0 1 1.5-4.9 10.5 10.5 0 0 1 3.9-2.7 15.3 15.3 0 0 1 4.9-1.1l4.5-.3h4.1V238c0-2.4-.7-4-2.2-5a9.1 9.1 0 0 0-5.4-1.5 12 12 0 0 0-8.1 3l-2.1-2.4a12.7 12.7 0 0 1 4.8-2.8 18.2 18.2 0 0 1 5.4-1 12.3 12.3 0 0 1 7.8 2.3c1.9 1.6 2.9 4 2.9 7.4zm-6.9-2.2a30 30 0 0 0-4.3.3 18.2 18.2 0 0 0-3.7.9 7.7 7.7 0 0 0-2.7 1.9 4.6 4.6 0 0 0-.9 2.9 4.2 4.2 0 0 0 .5 2.2 5 5 0 0 0 1.4 1.5 5.4 5.4 0 0 0 2 1 7.6 7.6 0 0 0 2.1.3 11.9 11.9 0 0 0 4.6-.8 9.4 9.4 0 0 0 2.9-2.1 8.5 8.5 0 0 0 1.5-3 18.6 18.6 0 0 0 .4-3.3v-1.8zm23.7 21.7a8.7 8.7 0 0 1-2.7 4.1 6.9 6.9 0 0 1-4.6 1.5h-1.8l-1.7-.4.4-3.2 1.5.4 1.6.2a3.3 3.3 0 0 0 1.7-.4 4 4 0 0 0 1.2-1 4.6 4.6 0 0 0 .9-1.5 10.1 10.1 0 0 0 .7-1.5l2.4-6.3-10.9-27h3.9l8.9 22.6 8.6-22.6h3.7zm14.1-10.7a2.7 2.7 0 1 1 .8 2 3 3 0 0 1-.8-2z"/></svg>